<svg xmlns="http://www.w3.org/2000/svg" viewBox="0 0 1200 1800" width="1200" height="1800">
  <!-- 背景 -->
  <defs>
    <linearGradient id="bg-gradient" x1="0%" y1="0%" x2="100%" y2="100%">
      <stop offset="0%" stop-color="#FFF5F7" />
      <stop offset="100%" stop-color="#FFECF1" />
    </linearGradient>
    
    <!-- 节点渐变 -->
    <linearGradient id="node-gradient" x1="0%" y1="0%" x2="100%" y2="100%">
      <stop offset="0%" stop-color="#FF4D6D" />
      <stop offset="100%" stop-color="#FF2442" />
    </linearGradient>
    
    <!-- 工具渐变 -->
    <linearGradient id="tool-gradient" x1="0%" y1="0%" x2="100%" y2="100%">
      <stop offset="0%" stop-color="#42C2FF" />
      <stop offset="100%" stop-color="#00A3FF" />
    </linearGradient>
    
    <!-- 智能体渐变 -->
    <linearGradient id="ai-gradient" x1="0%" y1="0%" x2="100%" y2="100%">
      <stop offset="0%" stop-color="#AD7BFF" />
      <stop offset="100%" stop-color="#7F44FF" />
    </linearGradient>
    
    <!-- 输出渐变 -->
    <linearGradient id="output-gradient" x1="0%" y1="0%" x2="100%" y2="100%">
      <stop offset="0%" stop-color="#FFD6E0" />
      <stop offset="100%" stop-color="#FFBECF" />
    </linearGradient>

    <!-- 阴影滤镜 -->
    <filter id="drop-shadow" x="-20%" y="-20%" width="140%" height="140%">
      <feGaussianBlur in="SourceAlpha" stdDeviation="4" />
      <feOffset dx="2" dy="4" result="offsetblur" />
      <feComponentTransfer>
        <feFuncA type="linear" slope="0.2" />
      </feComponentTransfer>
      <feMerge>
        <feMergeNode />
        <feMergeNode in="SourceGraphic" />
      </feMerge>
    </filter>
  </defs>
  
  <rect width="100%" height="100%" fill="url(#bg-gradient)" />
  
  <!-- 标题 -->
  <g filter="url(#drop-shadow)">
    <rect x="300" y="20" width="600" height="80" rx="20" ry="20" fill="#FFF" stroke="#FFBECF" stroke-width="2"/>
    <text x="600" y="60" font-family="Arial, sans-serif" font-size="28" font-weight="bold" text-anchor="middle" fill="#FF2442">私人飞机包机预估系统工作流</text>
    <text x="600" y="90" font-family="Arial, sans-serif" font-size="16" text-anchor="middle" fill="#FF6B6B">示例: 新加坡-北京航线 (单程)</text>
  </g>
  
  <!-- 图例 -->
  <g filter="url(#drop-shadow)" transform="translate(50, 100)">
    <rect x="0" y="0" width="200" height="140" rx="15" ry="15" fill="#FFF" stroke="#FFBECF" stroke-width="1"/>
    <text x="100" y="30" font-family="Arial, sans-serif" font-size="16" font-weight="bold" text-anchor="middle" fill="#FF2442">图例</text>
    
    <rect x="20" y="45" width="30" height="20" rx="8" ry="8" fill="url(#node-gradient)"/>
    <text x="70" y="60" font-family="Arial, sans-serif" font-size="14" fill="#333">处理节点</text>
    
    <polygon points="20,100 35,90 65,90 80,100 65,110 35,110" fill="url(#tool-gradient)"/>
    <text x="100" y="105" font-family="Arial, sans-serif" font-size="14" fill="#333">固定工具调用</text>
    
    <circle cx="35" cy="140" r="15" fill="url(#ai-gradient)"/>
    <text x="70" y="145" font-family="Arial, sans-serif" font-size="14" fill="#333">智能体介入</text>
  </g>
  
  <!-- 输入数据 -->
  <g filter="url(#drop-shadow)">
    <rect x="400" y="100" width="400" height="90" rx="45" ry="45" fill="#FFF" stroke="#FFBECF" stroke-width="2"/>
    <text x="600" y="145" font-family="Arial, sans-serif" font-size="18" font-weight="bold" text-anchor="middle" fill="#FF2442">输入: 新加坡→北京 (单程)</text>
    <text x="600" y="175" font-family="Arial, sans-serif" font-size="16" text-anchor="middle" fill="#FF6B6B">推荐: 航司A(A1,A2,A3), 航司B(B1,B2,B3)</text>
  </g>
  
  <!-- 节点1: 输入处理节点 -->
  <g filter="url(#drop-shadow)">
    <rect x="500" y="220" width="200" height="70" rx="15" ry="15" fill="url(#node-gradient)"/>
    <text x="600" y="255" font-family="Arial, sans-serif" font-size="18" font-weight="bold" text-anchor="middle" fill="#FFF">1. 输入处理节点</text>
    <text x="600" y="280" font-family="Arial, sans-serif" font-size="14" text-anchor="middle" fill="#FFF">接收并验证初始输入信息</text>
  </g>
  
  <!-- 节点1工具 -->
  <g filter="url(#drop-shadow)">
    <polygon points="280,240 320,220 400,220 440,240 400,280 320,280" fill="url(#tool-gradient)"/>
    <text x="360" y="260" font-family="Arial, sans-serif" font-size="16" font-weight="bold" text-anchor="middle" fill="#FFF">航线数据库</text>
  </g>
  
  <g filter="url(#drop-shadow)">
    <polygon points="760,240 800,220 880,220 920,240 880,280 800,280" fill="url(#tool-gradient)"/>
    <text x="840" y="260" font-family="Arial, sans-serif" font-size="16" font-weight="bold" text-anchor="middle" fill="#FFF">机场代码转换</text>
  </g>
  
  <!-- 连接线 -->
  <path d="M600,190 L600,220" stroke="#FF6B6B" stroke-width="3" fill="none" marker-end="url(#arrowhead)"/>
  <path d="M500,255 L440,255" stroke="#42C2FF" stroke-width="3" stroke-dasharray="5,3" fill="none" marker-end="url(#arrowhead)"/>
  <path d="M700,255 L760,255" stroke="#42C2FF" stroke-width="3" stroke-dasharray="5,3" fill="none" marker-end="url(#arrowhead)"/>
  
  <!-- 节点2: 行程类型判断节点 -->
  <g filter="url(#drop-shadow)">
    <rect x="500" y="350" width="200" height="70" rx="15" ry="15" fill="url(#node-gradient)"/>
    <text x="600" y="385" font-family="Arial, sans-serif" font-size="18" font-weight="bold" text-anchor="middle" fill="#FFF">2. 行程类型判断节点</text>
    <text x="600" y="410" font-family="Arial, sans-serif" font-size="14" text-anchor="middle" fill="#FFF">确定行程类型</text>
  </g>
  
  <!-- 节点2工具 -->
  <g filter="url(#drop-shadow)">
    <polygon points="280,370 320,350 400,350 440,370 400,410 320,410" fill="url(#tool-gradient)"/>
    <text x="360" y="390" font-family="Arial, sans-serif" font-size="16" font-weight="bold" text-anchor="middle" fill="#FFF">行程类型判断引擎</text>
  </g>
  
  <!-- 连接线 -->
  <path d="M600,290 L600,350" stroke="#FF6B6B" stroke-width="3" fill="none" marker-end="url(#arrowhead)"/>
  <path d="M500,385 L440,385" stroke="#42C2FF" stroke-width="3" stroke-dasharray="5,3" fill="none" marker-end="url(#arrowhead)"/>
  
  <!-- 节点3: 基地情况判断节点 -->
  <g filter="url(#drop-shadow)">
    <rect x="500" y="480" width="200" height="70" rx="15" ry="15" fill="url(#node-gradient)"/>
    <text x="600" y="515" font-family="Arial, sans-serif" font-size="18" font-weight="bold" text-anchor="middle" fill="#FFF">3. 基地情况判断节点</text>
    <text x="600" y="540" font-family="Arial, sans-serif" font-size="14" text-anchor="middle" fill="#FFF">检查基地情况</text>
  </g>
  
  <!-- 节点3工具和智能体 -->
  <g filter="url(#drop-shadow)">
    <polygon points="280,500 320,480 400,480 440,500 400,540 320,540" fill="url(#tool-gradient)"/>
    <text x="360" y="520" font-family="Arial, sans-serif" font-size="16" font-weight="bold" text-anchor="middle" fill="#FFF">基地数据库</text>
  </g>
  
  <g filter="url(#drop-shadow)">
    <circle cx="840" cy="515" r="40" fill="url(#ai-gradient)"/>
    <text x="840" y="510" font-family="Arial, sans-serif" font-size="16" font-weight="bold" text-anchor="middle" fill="#FFF">隐性基地</text>
    <text x="840" y="530" font-family="Arial, sans-serif" font-size="16" font-weight="bold" text-anchor="middle" fill="#FFF">智能体</text>
  </g>
  
  <!-- 连接线 -->
  <path d="M600,420 L600,480" stroke="#FF6B6B" stroke-width="3" fill="none" marker-end="url(#arrowhead)"/>
  <path d="M500,515 L440,515" stroke="#42C2FF" stroke-width="3" stroke-dasharray="5,3" fill="none" marker-end="url(#arrowhead)"/>
  <path d="M700,515 L800,515" stroke="#7F44FF" stroke-width="3" stroke-dasharray="5,3" fill="none" marker-end="url(#arrowhead)"/>
  
  <!-- 节点4: 飞机位置与可用性查询节点 -->
  <g filter="url(#drop-shadow)">
    <rect x="500" y="610" width="200" height="70" rx="15" ry="15" fill="url(#node-gradient)"/>
    <text x="600" y="645" font-family="Arial, sans-serif" font-size="18" font-weight="bold" text-anchor="middle" fill="#FFF">4. 飞机位置查询节点</text>
    <text x="600" y="670" font-family="Arial, sans-serif" font-size="14" text-anchor="middle" fill="#FFF">确定机型位置和可用性</text>
  </g>
  
  <!-- 节点4工具和智能体 -->
  <g filter="url(#drop-shadow)">
    <polygon points="280,630 320,610 400,610 440,630 400,670 320,670" fill="url(#tool-gradient)"/>
    <text x="360" y="650" font-family="Arial, sans-serif" font-size="16" font-weight="bold" text-anchor="middle" fill="#FFF">位置API查询</text>
  </g>
  
  <g filter="url(#drop-shadow)">
    <circle cx="840" cy="645" r="40" fill="url(#ai-gradient)"/>
    <text x="840" y="640" font-family="Arial, sans-serif" font-size="16" font-weight="bold" text-anchor="middle" fill="#FFF">位置追踪</text>
    <text x="840" y="660" font-family="Arial, sans-serif" font-size="16" font-weight="bold" text-anchor="middle" fill="#FFF">智能体</text>
  </g>
  
  <!-- 连接线 -->
  <path d="M600,550 L600,610" stroke="#FF6B6B" stroke-width="3" fill="none" marker-end="url(#arrowhead)"/>
  <path d="M500,645 L440,645" stroke="#42C2FF" stroke-width="3" stroke-dasharray="5,3" fill="none" marker-end="url(#arrowhead)"/>
  <path d="M700,645 L800,645" stroke="#7F44FF" stroke-width="3" stroke-dasharray="5,3" fill="none" marker-end="url(#arrowhead)"/>
  
  <!-- 节点5: 飞行时间计算节点 -->
  <g filter="url(#drop-shadow)">
    <rect x="500" y="740" width="200" height="70" rx="15" ry="15" fill="url(#node-gradient)"/>
    <text x="600" y="775" font-family="Arial, sans-serif" font-size="18" font-weight="bold" text-anchor="middle" fill="#FFF">5. 飞行时间计算节点</text>
    <text x="600" y="800" font-family="Arial, sans-serif" font-size="14" text-anchor="middle" fill="#FFF">计算载客和调机时间</text>
  </g>
  
  <!-- 节点5工具和智能体 -->
  <g filter="url(#drop-shadow)">
    <polygon points="280,760 320,740 400,740 440,760 400,800 320,800" fill="url(#tool-gradient)"/>
    <text x="360" y="775" font-family="Arial, sans-serif" font-size="16" font-weight="bold" text-anchor="middle" fill="#FFF">时间计算器</text>
    <text x="360" y="795" font-family="Arial, sans-serif" font-size="14" font-weight="bold" text-anchor="middle" fill="#FFF">+冗余系数应用</text>
  </g>
  
  <g filter="url(#drop-shadow)">
    <circle cx="840" cy="775" r="40" fill="url(#ai-gradient)"/>
    <text x="840" y="770" font-family="Arial, sans-serif" font-size="16" font-weight="bold" text-anchor="middle" fill="#FFF">航路与天气</text>
    <text x="840" y="790" font-family="Arial, sans-serif" font-size="16" font-weight="bold" text-anchor="middle" fill="#FFF">智能体</text>
  </g>
  
  <!-- 连接线 -->
  <path d="M600,680 L600,740" stroke="#FF6B6B" stroke-width="3" fill="none" marker-end="url(#arrowhead)"/>
  <path d="M500,775 L440,775" stroke="#42C2FF" stroke-width="3" stroke-dasharray="5,3" fill="none" marker-end="url(#arrowhead)"/>
  <path d="M700,775 L800,775" stroke="#7F44FF" stroke-width="3" stroke-dasharray="5,3" fill="none" marker-end="url(#arrowhead)"/>
  
  <!-- 节点6: 基础价格计算节点 -->
  <g filter="url(#drop-shadow)">
    <rect x="500" y="870" width="200" height="70" rx="15" ry="15" fill="url(#node-gradient)"/>
    <text x="600" y="905" font-family="Arial, sans-serif" font-size="18" font-weight="bold" text-anchor="middle" fill="#FFF">6. 基础价格计算节点</text>
    <text x="600" y="930" font-family="Arial, sans-serif" font-size="14" text-anchor="middle" fill="#FFF">应用基础价格计算公式</text>
  </g>
  
  <!-- 节点6工具 -->
  <g filter="url(#drop-shadow)">
    <polygon points="280,890 320,870 400,870 440,890 400,930 320,930" fill="url(#tool-gradient)"/>
    <text x="360" y="910" font-family="Arial, sans-serif" font-size="16" font-weight="bold" text-anchor="middle" fill="#FFF">价格计算引擎</text>
  </g>
  
  <!-- 连接线 -->
  <path d="M600,810 L600,870" stroke="#FF6B6B" stroke-width="3" fill="none" marker-end="url(#arrowhead)"/>
  <path d="M500,905 L440,905" stroke="#42C2FF" stroke-width="3" stroke-dasharray="5,3" fill="none" marker-end="url(#arrowhead)"/>
  
  <!-- 节点7: 特殊规则应用节点 -->
  <g filter="url(#drop-shadow)">
    <rect x="500" y="1000" width="200" height="70" rx="15" ry="15" fill="url(#node-gradient)"/>
    <text x="600" y="1035" font-family="Arial, sans-serif" font-size="18" font-weight="bold" text-anchor="middle" fill="#FFF">7. 特殊规则应用节点</text>
    <text x="600" y="1060" font-family="Arial, sans-serif" font-size="14" text-anchor="middle" fill="#FFF">检查并应用适用规则</text>
  </g>
  
  <!-- 节点7工具和智能体 -->
  <g filter="url(#drop-shadow)">
    <polygon points="280,1020 320,1000 400,1000 440,1020 400,1060 320,1060" fill="url(#tool-gradient)"/>
    <text x="360" y="1035" font-family="Arial, sans-serif" font-size="16" font-weight="bold" text-anchor="middle" fill="#FFF">规则库</text>
    <text x="360" y="1055" font-family="Arial, sans-serif" font-size="14" font-weight="bold" text-anchor="middle" fill="#FFF">+规则应用引擎</text>
  </g>
  
  <g filter="url(#drop-shadow)">
    <circle cx="840" cy="1035" r="40" fill="url(#ai-gradient)"/>
    <text x="840" y="1030" font-family="Arial, sans-serif" font-size="16" font-weight="bold" text-anchor="middle" fill="#FFF">规则冲突</text>
    <text x="840" y="1050" font-family="Arial, sans-serif" font-size="16" font-weight="bold" text-anchor="middle" fill="#FFF">解决智能体</text>
  </g>
  
  <!-- 连接线 -->
  <path d="M600,940 L600,1000" stroke="#FF6B6B" stroke-width="3" fill="none" marker-end="url(#arrowhead)"/>
  <path d="M500,1035 L440,1035" stroke="#42C2FF" stroke-width="3" stroke-dasharray="5,3" fill="none" marker-end="url(#arrowhead)"/>
  <path d="M700,1035 L800,1035" stroke="#7F44FF" stroke-width="3" stroke-dasharray="5,3" fill="none" marker-end="url(#arrowhead)"/>
  
  <!-- 节点8: 动态因素调整节点 -->
  <g filter="url(#drop-shadow)">
    <rect x="500" y="1130" width="200" height="70" rx="15" ry="15" fill="url(#node-gradient)"/>
    <text x="600" y="1165" font-family="Arial, sans-serif" font-size="18" font-weight="bold" text-anchor="middle" fill="#FFF">8. 动态因素调整节点</text>
    <text x="600" y="1190" font-family="Arial, sans-serif" font-size="14" text-anchor="middle" fill="#FFF">应用实时市场因素</text>
  </g>
  
  <!-- 节点8工具和智能体 -->
  <g filter="url(#drop-shadow)">
    <polygon points="280,1150 320,1130 400,1130 440,1150 400,1190 320,1190" fill="url(#tool-gradient)"/>
    <text x="360" y="1170" font-family="Arial, sans-serif" font-size="16" font-weight="bold" text-anchor="middle" fill="#FFF">季节调整计算器</text>
  </g>
  
  <g filter="url(#drop-shadow)">
    <circle cx="840" cy="1165" r="40" fill="url(#ai-gradient)"/>
    <text x="840" y="1160" font-family="Arial, sans-serif" font-size="16" font-weight="bold" text-anchor="middle" fill="#FFF">市场分析</text>
    <text x="840" y="1180" font-family="Arial, sans-serif" font-size="16" font-weight="bold" text-anchor="middle" fill="#FFF">智能体</text>
  </g>
  
  <!-- 连接线 -->
  <path d="M600,1070 L600,1130" stroke="#FF6B6B" stroke-width="3" fill="none" marker-end="url(#arrowhead)"/>
  <path d="M500,1165 L440,1165" stroke="#42C2FF" stroke-width="3" stroke-dasharray="5,3" fill="none" marker-end="url(#arrowhead)"/>
  <path d="M700,1165 L800,1165" stroke="#7F44FF" stroke-width="3" stroke-dasharray="5,3" fill="none" marker-end="url(#arrowhead)"/>
  
  <!-- 节点9: 多方案比较节点 -->
  <g filter="url(#drop-shadow)">
    <rect x="500" y="1260" width="200" height="70" rx="15" ry="15" fill="url(#node-gradient)"/>
    <text x="600" y="1295" font-family="Arial, sans-serif" font-size="18" font-weight="bold" text-anchor="middle" fill="#FFF">9. 多方案比较节点</text>
    <text x="600" y="1320" font-family="Arial, sans-serif" font-size="14" text-anchor="middle" fill="#FFF">比较所有机型方案</text>
  </g>
  
  <!-- 节点9工具和智能体 -->
  <g filter="url(#drop-shadow)">
    <polygon points="280,1280 320,1260 400,1260 440,1280 400,1320 320,1320" fill="url(#tool-gradient)"/>
    <text x="360" y="1300" font-family="Arial, sans-serif" font-size="16" font-weight="bold" text-anchor="middle" fill="#FFF">方案比较引擎</text>
  </g>
  
  <g filter="url(#drop-shadow)">
    <circle cx="840" cy="1295" r="40" fill="url(#ai-gradient)"/>
    <text x="840" y="1290" font-family="Arial, sans-serif" font-size="16" font-weight="bold" text-anchor="middle" fill="#FFF">优化推荐</text>
    <text x="840" y="1310" font-family="Arial, sans-serif" font-size="16" font-weight="bold" text-anchor="middle" fill="#FFF">智能体</text>
  </g>
  
  <!-- 连接线 -->
  <path d="M600,1200 L600,1260" stroke="#FF6B6B" stroke-width="3" fill="none" marker-end="url(#arrowhead)"/>
  <path d="M500,1295 L440,1295" stroke="#42C2FF" stroke-width="3" stroke-dasharray="5,3" fill="none" marker-end="url(#arrowhead)"/>
  <path d="M700,1295 L800,1295" stroke="#7F44FF" stroke-width="3" stroke-dasharray="5,3" fill="none" marker-end="url(#arrowhead)"/>
  
  <!-- 节点10: 结果生成节点 -->
  <g filter="url(#drop-shadow)">
    <rect x="500" y="1390" width="200" height="70" rx="15" ry="15" fill="url(#node-gradient)"/>
    <text x="600" y="1425" font-family="Arial, sans-serif" font-size="18" font-weight="bold" text-anchor="middle" fill="#FFF">10. 结果生成节点</text>
    <text x="600" y="1450" font-family="Arial, sans-serif" font-size="14" text-anchor="middle" fill="#FFF">生成预估价格与推荐</text>
  </g>
  
  <!-- 节点10工具和智能体 -->
  <g filter="url(#drop-shadow)">
    <polygon points="280,1410 320,1390 400,1390 440,1410 400,1450 320,1450" fill="url(#tool-gradient)"/>
    <text x="360" y="1430" font-family="Arial, sans-serif" font-size="16" font-weight="bold" text-anchor="middle" fill="#FFF">报告生成器</text>
  </g>
  
  <g filter="url(#drop-shadow)">
    <circle cx="840" cy="1425" r="40" fill="url(#ai-gradient)"/>
    <text x="840" y="1420" font-family="Arial, sans-serif" font-size="16" font-weight="bold" text-anchor="middle" fill="#FFF">内容优化</text>
    <text x="840" y="1440" font-family="Arial, sans-serif" font-size="16" font-weight="bold" text-anchor="middle" fill="#FFF">智能体</text>
  </g>
  
  <!-- 连接线 -->
  <path d="M600,1330 L600,1390" stroke="#FF6B6B" stroke-width="3" fill="none" marker-end="url(#arrowhead)"/>
  <path d="M500,1425 L440,1425" stroke="#42C2FF" stroke-width="3" stroke-dasharray="5,3" fill="none" marker-end="url(#arrowhead)"/>
  <path d="M700,1425 L800,1425" stroke="#7F44FF" stroke-width="3" stroke-dasharray="5,3" fill="none" marker-end="url(#arrowhead)"/>
  
  <!-- 最终输出 -->
  <g filter="url(#drop-shadow)">
    <rect x="350" y="1520" width="500" height="230" rx="20" ry="20" fill="url(#output-gradient)"/>
    <text x="600" y="1560" font-family="Arial, sans-serif" font-size="22" font-weight="bold" text-anchor="middle" fill="#FF2442">最终预估价格结果</text>
    
    <!-- 最经济选择 -->
    <g>
      <rect x="380" y="1580" width="440" height="40" rx="10" ry="10" fill="#FFF" opacity="0.8"/>
      <text x="410" y="1605" font-family="Arial, sans-serif" font-size="16" font-weight="bold" fill="#FF2442">最经济选择:</text>
      <text x="520" y="1605" font-family="Arial, sans-serif" font-size="16" fill="#333">A1 (奖状君主)</text>
      <text x="700" y="1605" font-family="Arial, sans-serif" font-size="16" font-weight="bold" fill="#FF2442">56,304美金</text>
    </g>
    
    <!-- 最佳性价比 -->
    <g>
      <rect x="380" y="1630" width="440" height="40" rx="10" ry="10" fill="#FFF" opacity="0.8"/>
      <text x="410" y="1655" font-family="Arial, sans-serif" font-size="16" font-weight="bold" fill="#FF2442">最佳性价比:</text>
      <text x="520" y="1655" font-family="Arial, sans-serif" font-size="16" fill="#333">A2/B1 (挑战者350/猎鹰2000)</text>
      <text x="700" y="1655" font-family="Arial, sans-serif" font-size="16" font-weight="bold" fill="#FF2442">98,532美金</text>
    </g>
    
    <!-- 最豪华选择 -->
    <g>
      <rect x="380" y="1680" width="440" height="40" rx="10" ry="10" fill="#FFF" opacity="0.8"/>
      <text x="410" y="1705" font-family="Arial, sans-serif" font-size="16" font-weight="bold" fill="#FF2442">最豪华选择:</text>
      <text x="520" y="1705" font-family="Arial, sans-serif" font-size="16" fill="#333">B3 (环球7500)</text>
      <text x="700" y="1705" font-family="Arial, sans-serif" font-size="16" font-weight="bold" fill="#FF2442">235,290美金</text>
    </g>
  </g>
  
  <!-- 连接线 -->
  <path d="M600,1460 L600,1520" stroke="#FF6B6B" stroke-width="3" fill="none" marker-end="url(#arrowhead)"/>
  
  <!-- 箭头标记定义 -->
  <defs>
    <marker id="arrowhead" markerWidth="10" markerHeight="7" refX="0" refY="3.5" orient="auto">
      <polygon points="0 0, 10 3.5, 0 7" fill="#FF6B6B"/>
    </marker>
  </defs>
</svg>
