<!DOCTYPE svg PUBLIC "-//W3C//DTD SVG 1.1//EN" "http://www.w3.org/Graphics/SVG/1.1/DTD/svg11.dtd">
<svg xmlns="http://www.w3.org/2000/svg" width="1000" height="1200" viewBox="0 0 1000 1200">
    <!-- 背景 -->
    <rect width="1000" height="1200" fill="#f8f9fa" />
    
    <!-- 标题 -->
    <text x="500" y="40" font-family="Arial" font-size="24" text-anchor="middle" font-weight="bold">OpenManus 项目类图</text>
    
    <!-- Agent类层次结构 -->
    <rect x="50" y="100" width="900" height="400" rx="10" ry="10" fill="#f0f5ff" stroke="#2f54eb" stroke-width="2" opacity="0.3" />
    <text x="500" y="130" font-family="Arial" font-size="20" text-anchor="middle" font-weight="bold">Agent 类层次结构</text>
    
    <!-- BaseAgent -->
    <rect x="350" y="150" width="300" height="80" rx="5" ry="5" fill="#d6e4ff" stroke="#597ef7" stroke-width="2" />
    <text x="500" y="180" font-family="Arial" font-size="18" text-anchor="middle" font-weight="bold">BaseAgent (ABC)</text>
    <line x1="350" y1="190" x2="650" y2="190" stroke="#597ef7" stroke-width="1" />
    <text x="360" y="210" font-family="Arial" font-size="14">+ name: str</text>
    <text x="360" y="230" font-family="Arial" font-size="14">+ step(): abstract</text>
    
    <!-- ReActAgent -->
    <rect x="200" y="280" width="250" height="80" rx="5" ry="5" fill="#d6e4ff" stroke="#597ef7" stroke-width="2" />
    <text x="325" y="310" font-family="Arial" font-size="16" text-anchor="middle" font-weight="bold">ReActAgent</text>
    <line x1="200" y1="320" x2="450" y2="320" stroke="#597ef7" stroke-width="1" />
    <text x="210" y="340" font-family="Arial" font-size="14">+ think(): async</text>
    <text x="210" y="360" font-family="Arial" font-size="14">+ step(): async</text>
    
    <!-- ToolCallAgent -->
    <rect x="550" y="280" width="250" height="80" rx="5" ry="5" fill="#d6e4ff" stroke="#597ef7" stroke-width="2" />
    <text x="675" y="310" font-family="Arial" font-size="16" text-anchor="middle" font-weight="bold">ToolCallAgent</text>
    <line x1="550" y1="320" x2="800" y2="320" stroke="#597ef7" stroke-width="1" />
    <text x="560" y="340" font-family="Arial" font-size="14">+ available_tools: ToolCollection</text>
    <text x="560" y="360" font-family="Arial" font-size="14">+ think(): async</text>
    
    <!-- PlanningAgent -->
    <rect x="550" y="400" width="250" height="80" rx="5" ry="5" fill="#d6e4ff" stroke="#597ef7" stroke-width="2" />
    <text x="675" y="430" font-family="Arial" font-size="16" text-anchor="middle" font-weight="bold">PlanningAgent</text>
    <line x1="550" y1="440" x2="800" y2="440" stroke="#597ef7" stroke-width="1" />
    <text x="560" y="460" font-family="Arial" font-size="14">+ active_plan_id: Optional[str]</text>
    <text x="560" y="480" font-family="Arial" font-size="14">+ step_execution_tracker: Dict</text>
    
    <!-- SWEAgent & ManusAgent -->
    <rect x="100" y="400" width="170" height="60" rx="5" ry="5" fill="#d6e4ff" stroke="#597ef7" stroke-width="2" />
    <text x="185" y="430" font-family="Arial" font-size="16" text-anchor="middle" font-weight="bold">SWEAgent</text>
    <line x1="100" y1="440" x2="270" y2="440" stroke="#597ef7" stroke-width="1" />
    
    <rect x="300" y="400" width="170" height="60" rx="5" ry="5" fill="#d6e4ff" stroke="#597ef7" stroke-width="2" />
    <text x="385" y="430" font-family="Arial" font-size="16" text-anchor="middle" font-weight="bold">ManusAgent</text>
    <line x1="300" y1="440" x2="470" y2="440" stroke="#597ef7" stroke-width="1" />
    
    <!-- 继承关系线 -->
    <line x1="500" y1="230" x2="325" y2="280" stroke="#597ef7" stroke-width="2" />
    <line x1="500" y1="230" x2="675" y2="280" stroke="#597ef7" stroke-width="2" />
    <line x1="675" y1="360" x2="675" y2="400" stroke="#597ef7" stroke-width="2" />
    <line x1="325" y1="360" x2="185" y2="400" stroke="#597ef7" stroke-width="2" />
    <line x1="325" y1="360" x2="385" y2="400" stroke="#597ef7" stroke-width="2" />
    
    <!-- Tool类层次结构 -->
    <rect x="50" y="550" width="900" height="350" rx="10" ry="10" fill="#f6ffed" stroke="#52c41a" stroke-width="2" opacity="0.3" />
    <text x="500" y="580" font-family="Arial" font-size="20" text-anchor="middle" font-weight="bold">Tool 类层次结构</text>
    
    <!-- BaseTool -->
    <rect x="350" y="600" width="300" height="80" rx="5" ry="5" fill="#d9f7be" stroke="#52c41a" stroke-width="2" />
    <text x="500" y="630" font-family="Arial" font-size="18" text-anchor="middle" font-weight="bold">BaseTool (ABC)</text>
    <line x1="350" y1="640" x2="650" y2="640" stroke="#52c41a" stroke-width="1" />
    <text x="360" y="660" font-family="Arial" font-size="14">+ name: str</text>
    <text x="360" y="680" font-family="Arial" font-size="14">+ execute(): abstract async</text>
    
    <!-- 具体工具类 -->
    <rect x="100" y="730" width="180" height="60" rx="5" ry="5" fill="#d9f7be" stroke="#52c41a" stroke-width="2" />
    <text x="190" y="765" font-family="Arial" font-size="16" text-anchor="middle" font-weight="bold">PythonExecute</text>
    
    <rect x="310" y="730" width="180" height="60" rx="5" ry="5" fill="#d9f7be" stroke="#52c41a" stroke-width="2" />
    <text x="400" y="765" font-family="Arial" font-size="16" text-anchor="middle" font-weight="bold">FileSaver</text>
    
    <rect x="520" y="730" width="180" height="60" rx="5" ry="5" fill="#d9f7be" stroke="#52c41a" stroke-width="2" />
    <text x="610" y="765" font-family="Arial" font-size="16" text-anchor="middle" font-weight="bold">BrowserUseTool</text>
    
    <rect x="730" y="730" width="180" height="60" rx="5" ry="5" fill="#d9f7be" stroke="#52c41a" stroke-width="2" />
    <text x="820" y="765" font-family="Arial" font-size="16" text-anchor="middle" font-weight="bold">GoogleSearch</text>
    
    <rect x="100" y="820" width="180" height="60" rx="5" ry="5" fill="#d9f7be" stroke="#52c41a" stroke-width="2" />
    <text x="190" y="855" font-family="Arial" font-size="16" text-anchor="middle" font-weight="bold">Terminate</text>
    
    <rect x="310" y="820" width="180" height="60" rx="5" ry="5" fill="#d9f7be" stroke="#52c41a" stroke-width="2" />
    <text x="400" y="855" font-family="Arial" font-size="16" text-anchor="middle" font-weight="bold">PlanningTool</text>
    
    <rect x="520" y="820" width="180" height="60" rx="5" ry="5" fill="#d9f7be" stroke="#52c41a" stroke-width="2" />
    <text x="610" y="855" font-family="Arial" font-size="16" text-anchor="middle" font-weight="bold">StrReplaceEditor</text>
    
    <!-- ToolCollection -->
    <rect x="730" y="820" width="180" height="60" rx="5" ry="5" fill="#d9f7be" stroke="#52c41a" stroke-width="2" />
    <text x="820" y="855" font-family="Arial" font-size="16" text-anchor="middle" font-weight="bold">ToolCollection</text>
    
    <!-- 继承关系线 -->
    <line x1="500" y1="680" x2="190" y2="730" stroke="#52c41a" stroke-width="2" />
    <line x1="500" y1="680" x2="400" y2="730" stroke="#52c41a" stroke-width="2" />
    <line x1="500" y1="680" x2="610" y2="730" stroke="#52c41a" stroke-width="2" />
    <line x1="500" y1="680" x2="820" y2="730" stroke="#52c41a" stroke-width="2" />
    <line x1="500" y1="680" x2="190" y2="820" stroke="#52c41a" stroke-width="2" />
    <line x1="500" y1="680" x2="400" y2="820" stroke="#52c41a" stroke-width="2" />
    <line x1="500" y1="680" x2="610" y2="820" stroke="#52c41a" stroke-width="2" />
    
    <!-- Flow类层次结构 -->
    <rect x="50" y="950" width="900" height="200" rx="10" ry="10" fill="#fff2f0" stroke="#f5222d" stroke-width="2" opacity="0.3" />
    <text x="500" y="980" font-family="Arial" font-size="20" text-anchor="middle" font-weight="bold">Flow 类层次结构</text>
    
    <!-- BaseFlow -->
    <rect x="350" y="1000" width="300" height="80" rx="5" ry="5" fill="#ffccc7" stroke="#f5222d" stroke-width="2" />
    <text x="500" y="1030" font-family="Arial" font-size="18" text-anchor="middle" font-weight="bold">BaseFlow (ABC)</text>
    <line x1="350" y1="1040" x2="650" y2="1040" stroke="#f5222d" stroke-width="1" />
    <text x="360" y="1060" font-family="Arial" font-size="14">+ agents: Dict[str, BaseAgent]</text>
    <text x="360" y="1080" font-family="Arial" font-size="14">+ run(): abstract async</text>
    
    <!-- PlanningFlow -->
    <rect x="400" y="1120" width="200" height="60" rx="5" ry="5" fill="#ffccc7" stroke="#f5222d" stroke-width="2" />
    <text x="500" y="1155" font-family="Arial" font-size="16" text-anchor="middle" font-weight="bold">PlanningFlow</text>
    
    <!-- 继承关系线 -->
    <line x1="500" y1="1080" x2="500" y2="1120" stroke="#f5222d" stroke-width="2" />
    
    <!-- 关联关系 -->
    <line x1="675" y1="340" x2="820" y2="820" stroke="#1890ff" stroke-width="2" stroke-dasharray="5,5" />
    <text x="750" y="600" font-family="Arial" font-size="14" fill="#1890ff">使用</text>
    
    <line x1="500" y1="1060" x2="500" y2="230" stroke="#1890ff" stroke-width="2" stroke-dasharray="5,5" />
    <text x="520" y="500" font-family="Arial" font-size="14" fill="#1890ff">管理</text>
</svg>